HIERARCHY
ROOT Hips
{
  OFFSET -250.96 95.9489 222.142
  CHANNELS 6 Xposition Yposition Zposition Zrotation Xrotation Yrotation
  JOINT ToSpine
  {
    OFFSET -0.0105055 1.38907 -7.13956
    CHANNELS 3 Zrotation Xrotation Yrotation
    JOINT Spine
    {
      OFFSET 0.0105055 10 1
      CHANNELS 3 Zrotation Xrotation Yrotation
      JOINT Spine1
      {
        OFFSET 0 12 1.60637
        CHANNELS 3 Zrotation Xrotation Yrotation
        JOINT Neck
        {
          OFFSET 0 27 2.26658
          CHANNELS 3 Zrotation Xrotation Yrotation
          JOINT Head
          {
            OFFSET 0 9 2.12705
            CHANNELS 3 Zrotation Xrotation Yrotation
            End Site
            {
              OFFSET 0 11 2
            }
          }
        }
        JOINT LeftShoulder
        {
          OFFSET 8 19.6109 2.86452
          CHANNELS 3 Zrotation Xrotation Yrotation
          JOINT LeftArm
          {
            OFFSET 12 1 0.681055
            CHANNELS 3 Zrotation Xrotation Yrotation
            JOINT LeftForeArm
            {
              OFFSET 19 0 -1.52608
              CHANNELS 3 Zrotation Xrotation Yrotation
              JOINT LeftHand
              {
                OFFSET 23 0 0
                CHANNELS 3 Zrotation Xrotation Yrotation
                End Site
                {
                  OFFSET 10 0 0
                }
              }
            }
          }
        }
        JOINT RightShoulder
        {
          OFFSET -8 19.6109 2.86452
          CHANNELS 3 Zrotation Xrotation Yrotation
          JOINT RightArm
          {
            OFFSET -12 1 0.681055
            CHANNELS 3 Zrotation Xrotation Yrotation
            JOINT RightForeArm
            {
              OFFSET -19 0 -1.52608
              CHANNELS 3 Zrotation Xrotation Yrotation
              JOINT RightHand
              {
                OFFSET -23 0 0
                CHANNELS 3 Zrotation Xrotation Yrotation
                End Site
                {
                  OFFSET -10 0 0
                }
              }
            }
          }
        }
      }
    }
  }
  JOINT LeftUpLeg
  {
    OFFSET 9 -7.17245 0
    CHANNELS 3 Zrotation Xrotation Yrotation
    JOINT LeftLeg
    {
      OFFSET 0 -44.1113 0
      CHANNELS 3 Zrotation Xrotation Yrotation
      JOINT LeftFoot
      {
        OFFSET 0 -36.1829 0
        CHANNELS 3 Zrotation Xrotation Yrotation
        JOINT LeftToeBase
        {
          OFFSET 0 -4.84184 13
          CHANNELS 3 Zrotation Xrotation Yrotation
          End Site
          {
            OFFSET 0 1 6
          }
        }
      }
    }
  }
  JOINT RightUpLeg
  {
    OFFSET -9 -7.17245 0
    CHANNELS 3 Zrotation Xrotation Yrotation
    JOINT RightLeg
    {
      OFFSET 0 -44.0551 0
      CHANNELS 3 Zrotation Xrotation Yrotation
      JOINT RightFoot
      {
        OFFSET 0 -36.1469 0
        CHANNELS 3 Zrotation Xrotation Yrotation
        JOINT RightToeBase
        {
          OFFSET 0 -4.92256 13
          CHANNELS 3 Zrotation Xrotation Yrotation
          End Site
          {
            OFFSET 0 1 6
          }
        }
      }
    }
  }
}
MOTION
Frames:	15
Frame Time:	0.0333333
-185.305 95.6543 162.96 2.98154 5.3604 126.849 0 0 0 0.363689 6.91109 0.520745 -5.51973 0.819901 1.14675 8.19048 4.19636 2.191 -3.90995 -1.37998 5.72675 -26.5683 3.14783 -6.09898 -41.6302 13.7887 -18.1376 -5.39153 -25.622 -6.76811 -9.62255 0.388154 -4.59845 21.882 5.11428 14.4711 54.762 11.0519 -0.738458 4.99237 -12.2706 5.83866 4.61152 0.115327 2.82089 -4.21075 -1.41824 5.47731 -2.52123 21.3179 -8.00748 7.85012 -15.278 1.05471 0.47468 1.09474 -2.19916 -2.54014 -16.1291 2.60648 -0.0213285 60.0687 1.81168 -25.8327 -8.96785 -2.05308 4.63992 -18.0014 -6.08677 
-183.251 95.6418 161.217 3.36334 4.23463 127.043 0 0 0 -0.789432 6.4564 0.121365 -3.17503 0.921008 0.336681 8.79063 4.97867 2.05121 -4.07123 -1.75986 5.87858 -26.4505 3.26193 -6.4804 -42.1548 11.9571 -20.222 -5.2396 -23.7 -8.78625 -8.75621 0.337086 -4.38242 22.0301 5.1198 14.3996 54.242 10.5685 -1.10721 4.68317 -10.6666 5.67077 4.91932 0.159318 3.74343 -3.04196 0.3054 6.4166 -2.32607 21.0024 -9.07886 8.65113 -16.663 1.27051 0.727105 1.31179 -3.23767 0.156236 -19.5093 4.70448 0.00955304 53.7643 -0.705047 -24.265 -10.5551 -2.2727 3.64042 -13.4155 -6.82426 
-180.928 95.4457 159.178 3.8707 3.84823 127.637 0 0 0 -2.25707 6.55054 -0.394614 -1.02245 0.774829 -0.560304 9.46237 5.45934 1.87215 -4.17173 -1.84628 5.98946 -26.0622 3.32496 -6.79095 -42.2584 11.8786 -21.9172 -5.5769 -23.1317 -11.2078 -9.75691 0.455093 -5.33692 22.0989 4.87835 13.5297 54.3442 10.2047 -1.41625 4.55539 -10.2856 5.3688 3.47173 0.124354 4.0117 -2.51193 3.05409 7.09985 -2.08849 20.3576 -10.3475 9.70919 -18.7786 1.60899 0.544891 2.25145 -2.68779 1.67515 -20.6438 5.61266 0.0407439 44.4161 -2.6995 -24.6443 -8.12131 -1.78509 4.02747 -15.2568 -6.77439 
-178.556 95.2266 157.088 4.29737 3.44838 128.88 0 0 0 -2.99351 5.85569 -1.29505 0.107905 1.70121 -1.59725 10.6513 5.9087 1.56844 -4.35043 -2.50108 6.15949 -25.013 3.31808 -7.09905 -42.692 11.6235 -24.5317 -5.56833 -22.184 -12.1865 -9.66845 0.447603 -5.29031 22.8645 5.07439 13.7728 54.1066 9.68578 -2.37958 4.75644 -12.6396 6.28028 1.92722 0.0555917 3.35995 -1.63959 5.86663 7.97821 -2.06455 19.4167 -12.0438 10.5831 -20.319 1.9009 1.15655 2.20741 -5.07651 2.52586 -20.8629 4.83207 -0.125615 33.3522 -3.00781 -22.9657 -5.0339 -1.00431 4.08426 -15.3813 -5.33584 
-176.042 94.766 154.867 4.49882 3.25622 130.122 0 0 0 -4.15866 5.33852 -1.83657 1.62063 2.15438 -2.36179 11.7396 6.44493 1.01343 -4.78868 -2.90107 6.11775 -24.6249 3.37707 -7.41507 -42.2391 12.331 -27.3058 -5.35086 -20.9313 -12.0792 -9.18068 0.426648 -5.30683 23.5793 5.1687 13.6955 53.9866 8.23028 -4.03553 4.54126 -12.5904 7.26452 2.18401 0.0727836 3.81413 -0.910986 8.89127 8.82822 -2.43204 18.241 -15.228 11.4185 -21.6185 2.18725 0.267595 1.13037 -1.35104 2.66624 -20.3618 2.0374 0.0582674 21.7762 -0.315523 -22.4626 -0.296914 -0.0712929 4.43968 -17.1908 -7.07919 
-173.44 94.2027 152.51 4.74888 3.07268 131.161 0 0 0 -4.808 4.72122 -2.21096 2.76986 2.62023 -2.88218 12.345 7.10096 0.636501 -4.51621 -3.18843 5.96427 -24.6647 3.40547 -7.49368 -41.4542 13.3788 -29.9259 -5.15509 -19.6365 -11.5503 -8.81078 0.381802 -4.95483 23.9454 5.20628 13.6211 54.2898 7.12965 -5.44949 4.43702 -12.7752 7.47103 2.59903 0.0912293 4.03191 -0.180774 12.5029 9.69742 -2.83663 16.0489 -16.9044 13.0925 -22.3039 2.59139 0.407199 0.208523 -1.74753 2.85904 -19.778 0.632447 0.487931 11.8002 -0.640607 -17.1826 1.10761 0.174403 3.90473 -14.6306 -4.38334 
-170.677 93.2855 149.974 4.83548 3.16425 132.416 0 0 0 -5.45995 4.05313 -2.58365 3.42311 2.86509 -3.29295 12.8594 7.87601 0.220985 -3.95538 -3.40238 5.70332 -24.5895 3.46067 -7.69633 -41.0071 14.3158 -32.2294 -4.96271 -18.5694 -10.2463 -8.9087 0.394391 -5.05779 24.507 5.32949 13.721 54.4701 6.1596 -7.20634 4.43096 -13.5087 7.62641 3.2425 0.126456 4.41898 0.336912 16.022 10.5451 -3.13344 14.6299 -19.9111 13.885 -23.5417 2.90734 -0.0226453 -0.0405271 0.109191 2.80515 -20.1079 -0.143275 1.41497 6.13652 -2.35703 -16.9864 1.60456 0.253627 4.06276 -15.3196 -4.72325 
-167.752 92.1275 147.393 5.02994 3.18552 133.261 0 0 0 -6.02319 3.59584 -2.75387 4.13726 3.03537 -3.56149 13.8543 7.59234 -0.344984 -4.26445 -3.08795 5.53642 -25.0208 3.49145 -7.64714 -40.1325 15.6142 -33.6497 -4.84962 -17.2872 -9.37126 -9.52286 0.449046 -5.3868 24.9222 5.34386 13.5495 54.6504 6.13281 -8.25597 4.6849 -14.9517 7.00005 4.58611 0.192464 4.80673 1.12354 19.7304 11.7026 -3.60405 13.2952 -21.975 14.9894 -24.8873 3.32579 0.17622 -1.27615 -0.408791 3.17006 -20.9551 -0.320021 1.75684 5.14986 -3.09648 -13.587 -0.212163 -0.0387385 4.06633 -15.3892 -6.4116 
-164.943 91.1794 144.778 5.72248 2.6854 133.475 0 0 0 -5.37036 3.46343 -2.83817 4.61331 3.42696 -3.83926 14.4159 6.684 -0.43506 -4.38216 -2.20791 5.58889 -25.0143 3.43417 -7.46739 -40.7933 15.9153 -34.2819 -4.52047 -15.6977 -7.6413 -9.57505 0.465895 -5.54636 25.0993 5.28897 13.2859 54.6594 6.69114 -8.32556 4.49081 -13.3718 6.02813 4.11323 0.15727 4.40178 2.18925 23.4705 12.619 -3.76058 11.7831 -22.965 15.0089 -26.3238 3.52711 0.314717 -1.5695 -0.951315 4.30624 -21.1791 0.0561976 2.2823 6.7218 -3.27008 -10.8934 1.21192 0.125078 4.49039 -17.3521 -6.73293 
-162.244 90.9949 142.28 6.47821 1.47565 133.543 0 0 0 -4.00983 3.06593 -2.86862 5.43346 4.12441 -4.21421 14.1548 5.61399 -0.078847 -4.09483 -1.65932 5.67678 -25.3769 3.47487 -7.47562 -41.315 16.582 -33.6758 -4.54296 -15.2928 -6.1036 -8.33465 0.362372 -4.97658 25.0524 5.20174 13.0362 54.3691 6.06202 -8.37648 4.21334 -12.9503 5.08999 5.07299 0.178051 4.01048 3.36869 26.624 12.8559 -3.37419 9.26632 -22.8087 12.5109 -24.772 2.76428 0.518048 -3.34227 -1.39715 6.06431 -22.0074 1.00817 2.50104 10.9804 -1.82567 -9.39764 0.952189 0.112777 3.20999 -11.4107 -6.23486 
-159.257 91.2256 139.646 7.1531 0.414856 134.289 0 0 0 -3.37716 2.24158 -3.22201 6.87386 4.86648 -4.96165 13.7198 5.1657 0.172516 -4.02522 -1.73538 5.70612 -26.1125 3.53887 -7.43249 -41.4455 17.9508 -32.4401 -4.89044 -15.7864 -3.86635 -8.17128 0.341443 -4.78007 25.2571 5.27563 13.1652 53.5855 5.65985 -8.35223 3.93546 -12.2312 3.89005 4.74172 0.166163 4.01036 4.91879 28.5359 12.8517 -2.56903 8.70568 -23.3413 8.85447 -20.8227 1.63565 1.10217 -10.2464 -2.77873 7.68558 -22.986 1.0637 2.78684 15.2362 0.0153809 -13.4353 6.64338 0.766391 4.22256 -16.3134 -7.73085 
-156.056 91.7044 136.735 7.92389 0.147374 135.314 0 0 0 -3.0956 1.9024 -3.74183 7.89628 5.18145 -5.77989 13.2384 4.99031 0.304968 -3.85317 -1.39613 5.62418 -26.0622 3.57479 -7.55931 -42.9795 19.3122 -30.3704 -5.05924 -16.4568 -0.656693 -8.65021 0.330329 -4.36611 25.0329 5.17859 12.9729 53.4617 5.83229 -7.94109 3.96901 -12.9074 3.06602 4.43447 0.144803 3.74355 6.55197 28.5562 12.4378 -1.21005 12.9436 -24.0746 5.30665 -16.4817 0.764698 1.68961 -15.2617 -5.95502 8.60545 -22.3191 -0.670397 2.20474 19.6925 2.2 -13.9863 7.18858 0.882923 3.82421 -14.3333 -8.41781 
-152.878 92.1601 133.722 7.66221 0.497694 134.488 0 0 0 -2.49344 1.62928 -3.385 6.77841 4.59961 -5.19268 12.9196 5.22582 0.273639 -3.81134 -0.695297 5.51786 -25.2074 3.48026 -7.54925 -44.7919 21.7001 -27.9434 -5.33455 -16.7586 2.98645 -9.09254 0.324563 -4.07624 24.6254 5.06762 12.8261 53.9224 5.39108 -7.8304 3.89072 -13.2644 3.14668 4.48733 0.130133 3.32691 6.24609 26.3559 11.3735 -0.317921 20.9859 -22.6048 3.84257 -11.0999 0.368166 2.03247 -19.2759 -10.6338 8.81179 -21.4822 -2.77446 0.664206 24.2441 5.38696 -15.4635 5.72373 0.774837 3.34174 -11.9071 -7.66519 
-149.721 92.829 130.909 7.84959 1.13514 134.546 0 0 0 -2.01185 2.2098 -3.08424 6.11696 3.7904 -4.85249 12.005 5.34198 0.302275 -3.6604 -0.0436739 5.22593 -24.9105 3.48753 -7.67225 -46.072 24.0607 -24.8727 -5.85419 -17.0576 4.74583 -9.4267 0.30223 -3.67524 24.1267 5.04252 12.997 54.1042 4.89816 -7.93078 3.67015 -12.0359 4.18599 4.29648 0.142635 3.79594 7.34178 22.3794 9.93064 0.111495 32.1106 -23.4385 2.7503 -4.55759 0.118154 2.2561 -15.6757 -10.0992 8.81111 -19.2813 -3.8199 0.0359534 27.0383 6.46488 -17.6316 2.41574 0.370091 2.857 -9.7019 -6.7118 
-146.708 93.4079 128.328 8.17233 1.85616 134.317 0 0 0 -1.42644 2.95245 -2.41216 5.20263 3.40643 -4.19619 10.8617 5.10923 0.39664 -3.37064 -0.211307 4.83801 -25.2907 3.48012 -7.52033 -47.278 24.7257 -21.7365 -6.2723 -16.7463 4.76945 -10.4499 0.308879 -3.37618 23.6792 4.99507 13.0724 53.9029 5.49607 -6.73014 3.94836 -12.8324 5.17548 4.76681 0.164385 3.95123 8.85475 16.7089 8.90613 0.0308441 44.6778 -25.4377 0.858738 1.03598 -0.019305 1.01282 -1.5024 -4.35409 8.96161 -16.0732 -3.34632 -0.00917432 28.0412 5.85522 -20.2531 -0.0849364 -0.0078342 3.25265 -11.4891 -7.78411 
